<?xml version="1.0" encoding="UTF-8"?>
<svg xmlns="http://www.w3.org/2000/svg" id="Layer_1" data-name="Layer 1" viewBox="0 0 24 24">
  <path d="m20.529,23.999c-.01,0-.02,0-.029,0-.263,0-.483-.205-.499-.471-.245-4.222-3.753-7.529-7.986-7.529s-7.742,3.307-7.987,7.529c-.016.276-.255.484-.528.47-.276-.016-.486-.252-.47-.528.275-4.75,4.222-8.471,8.985-8.471s8.709,3.721,8.984,8.471c.016.275-.194.512-.47.528ZM4.5,6.5c0-.276.224-.5.5-.5h1.01v-.491c-.003-1.471.568-2.854,1.607-3.895s2.421-1.614,3.893-1.614h1c3.028,0,5.495,2.463,5.5,5.491v.509h.992c.276,0,.5.224.5.5s-.224.5-.5.5h-.989l.002.999c0,3.31-2.691,6.001-6,6.001s-6-2.691-6-6l-.002-1h-1.011c-.276,0-.5-.224-.5-.5Zm12.511.5H7.011l.002.999c0,2.758,2.243,5.001,5,5.001s5-2.243,5-5l-.002-1Zm-10.002-1.493v.493h10v-.507c-.004-1.955-1.262-3.622-3.009-4.238v2.745c0,.276-.224.5-.5.5s-.5-.224-.5-.5V1.027c-.162-.018-.326-.027-.492-.027h-1c-.171,0-.341.01-.509.029v2.971c0,.276-.224.5-.5.5s-.5-.224-.5-.5V1.258c-.624.221-1.195.581-1.676,1.063-.85.852-1.317,1.983-1.315,3.187Z"/>
</svg>
